<svg xmlns="http://www.w3.org/2000/svg" xmlns:xlink="http://www.w3.org/1999/xlink" width="1080" zoomAndPan="magnify" viewBox="0 0 810 809.999993" height="1080" preserveAspectRatio="xMidYMid meet" version="1.0"><defs><clipPath id="fbdce4d33d"><path d="M 11.347656 77 L 798.847656 77 L 798.847656 738 L 11.347656 738 Z M 11.347656 77 " clip-rule="nonzero"/></clipPath></defs><g clip-path="url(#fbdce4d33d)"><path fill="#83948f" d="M 404.941406 644.125 C 450.304688 644.332031 503.148438 648.054688 553.207031 658.132812 C 597.105469 668.457031 602.210938 680.332031 557.125 690.984375 C 509.238281 700.746094 458.25 704.785156 404.941406 706.378906 C 351.589844 704.773438 300.601562 700.746094 252.71875 690.984375 C 207.558594 680.339844 212.738281 668.457031 256.636719 658.132812 C 306.691406 648.042969 359.59375 644.332031 404.941406 644.125 Z M 93.105469 203.433594 C 79.367188 283.359375 96.664062 379.65625 166.875 408.027344 C 128.441406 422.429688 125.289062 439.441406 115.835938 452.753906 C 33.128906 387.136719 49.347656 265.742188 93.105469 203.433594 Z M 293.113281 112.550781 C 255.394531 150.15625 240.886719 142.507812 184.886719 142.507812 C 88.859375 142.507812 11.339844 220.269531 11.339844 316.480469 C 11.378906 381.671875 47.796875 459.796875 101.882812 489.914062 C 132.9375 507.175781 139.808594 498.445312 146.574219 475.34375 C 165.945312 409.167969 374.53125 410.210938 482.492188 427.253906 C 545.253906 437.996094 583.160156 449.929688 592.621094 485.164062 C 472.789062 431.210938 322.003906 435.703125 199.148438 475.648438 C 176.734375 483.089844 163.5625 495.738281 170.289062 518.125 C 181.078125 553.875 182.933594 582.34375 174.78125 627.402344 C 168.78125 660.503906 168.582031 685.46875 202.214844 701.230469 C 217.03125 708.195312 233.863281 713.671875 251.804688 718.421875 C 299.222656 731.191406 354.644531 737.855469 404.921875 737.855469 C 455.226562 737.855469 510.707031 731.191406 558.125 718.421875 C 578.429688 713.007812 596.765625 705.519531 613.351562 698.582031 C 640.507812 687.277344 642.945312 668.46875 637.253906 643.9375 C 631.113281 617.332031 630.589844 582.613281 639.484375 547.675781 C 645.84375 522.769531 652.914062 511.925781 685.980469 499.941406 C 752.71875 475.710938 798.492188 390.09375 798.550781 316.429688 C 798.589844 209.941406 690.265625 116.628906 579.460938 150.066406 C 586.332031 181.316406 596.46875 225.605469 559.117188 262.953125 C 568.421875 224.605469 562.835938 186.117188 542.941406 149.117188 C 523.046875 112.125 490.8125 85.214844 419.371094 79.222656 C 347.910156 73.179688 316.976562 88.785156 293.113281 112.550781 Z M 293.113281 112.550781 " fill-opacity="1" fill-rule="evenodd"/></g></svg>