<svg xmlns="http://www.w3.org/2000/svg" xmlns:xlink="http://www.w3.org/1999/xlink" width="1080" zoomAndPan="magnify" viewBox="0 0 810 809.999993" height="1080" preserveAspectRatio="xMidYMid meet" version="1.0"><defs><clipPath id="bd006f6c10"><path d="M 48.820312 98.386719 L 761.316406 98.386719 L 761.316406 707 L 48.820312 707 Z M 48.820312 98.386719 " clip-rule="nonzero"/></clipPath></defs><path fill="#83948f" d="M 426.023438 349.867188 C 426.023438 350.554688 425.988281 351.238281 425.921875 351.921875 C 425.855469 352.605469 425.753906 353.285156 425.621094 353.957031 C 425.488281 354.632812 425.320312 355.296875 425.121094 355.953125 C 424.921875 356.609375 424.691406 357.253906 424.429688 357.890625 C 424.164062 358.523438 423.871094 359.144531 423.546875 359.75 C 423.226562 360.355469 422.871094 360.941406 422.492188 361.511719 C 422.109375 362.085938 421.703125 362.636719 421.265625 363.164062 C 420.832031 363.695312 420.371094 364.203125 419.886719 364.691406 C 419.398438 365.175781 418.890625 365.636719 418.363281 366.070312 C 417.832031 366.507812 417.28125 366.914062 416.710938 367.296875 C 416.140625 367.679688 415.550781 368.03125 414.945312 368.355469 C 414.339844 368.675781 413.722656 368.972656 413.085938 369.234375 C 412.453125 369.496094 411.808594 369.726562 411.152344 369.925781 C 410.496094 370.125 409.828125 370.292969 409.15625 370.425781 C 408.484375 370.558594 407.804688 370.660156 407.121094 370.726562 C 406.4375 370.796875 405.753906 370.828125 405.066406 370.828125 C 404.382812 370.828125 403.699219 370.796875 403.015625 370.726562 C 402.332031 370.660156 401.652344 370.558594 400.980469 370.425781 C 400.308594 370.292969 399.640625 370.125 398.984375 369.925781 C 398.328125 369.726562 397.683594 369.496094 397.050781 369.234375 C 396.414062 368.972656 395.796875 368.675781 395.191406 368.355469 C 394.585938 368.03125 393.996094 367.679688 393.425781 367.296875 C 392.855469 366.914062 392.304688 366.507812 391.773438 366.070312 C 391.246094 365.636719 390.738281 365.175781 390.25 364.691406 C 389.765625 364.203125 389.304688 363.695312 388.871094 363.164062 C 388.433594 362.636719 388.027344 362.085938 387.644531 361.511719 C 387.265625 360.941406 386.910156 360.355469 386.589844 359.75 C 386.265625 359.144531 385.972656 358.523438 385.707031 357.890625 C 385.445312 357.253906 385.214844 356.609375 385.015625 355.953125 C 384.816406 355.296875 384.648438 354.632812 384.515625 353.957031 C 384.382812 353.285156 384.28125 352.605469 384.214844 351.921875 C 384.148438 351.238281 384.113281 350.554688 384.113281 349.867188 C 384.113281 349.183594 384.148438 348.496094 384.214844 347.8125 C 384.28125 347.132812 384.382812 346.453125 384.515625 345.78125 C 384.648438 345.105469 384.816406 344.441406 385.015625 343.785156 C 385.214844 343.128906 385.445312 342.480469 385.707031 341.847656 C 385.972656 341.214844 386.265625 340.59375 386.589844 339.988281 C 386.910156 339.382812 387.265625 338.792969 387.644531 338.222656 C 388.027344 337.652344 388.433594 337.101562 388.871094 336.570312 C 389.304688 336.042969 389.765625 335.53125 390.25 335.046875 C 390.738281 334.5625 391.246094 334.101562 391.773438 333.667969 C 392.304688 333.230469 392.855469 332.824219 393.425781 332.441406 C 393.996094 332.058594 394.585938 331.707031 395.191406 331.382812 C 395.796875 331.058594 396.414062 330.765625 397.050781 330.503906 C 397.683594 330.242188 398.328125 330.011719 398.984375 329.8125 C 399.640625 329.613281 400.308594 329.445312 400.980469 329.3125 C 401.652344 329.175781 402.332031 329.078125 403.015625 329.007812 C 403.699219 328.941406 404.382812 328.910156 405.066406 328.910156 C 405.753906 328.910156 406.4375 328.941406 407.121094 329.007812 C 407.804688 329.078125 408.484375 329.175781 409.15625 329.3125 C 409.828125 329.445312 410.496094 329.613281 411.152344 329.8125 C 411.808594 330.011719 412.453125 330.242188 413.085938 330.503906 C 413.722656 330.765625 414.339844 331.058594 414.945312 331.382812 C 415.550781 331.707031 416.140625 332.058594 416.710938 332.441406 C 417.28125 332.824219 417.832031 333.230469 418.363281 333.667969 C 418.890625 334.101562 419.398438 334.5625 419.886719 335.046875 C 420.371094 335.53125 420.832031 336.042969 421.265625 336.570312 C 421.703125 337.101562 422.109375 337.652344 422.492188 338.222656 C 422.871094 338.792969 423.226562 339.382812 423.546875 339.988281 C 423.871094 340.59375 424.164062 341.214844 424.429688 341.847656 C 424.691406 342.480469 424.921875 343.128906 425.121094 343.785156 C 425.320312 344.441406 425.488281 345.105469 425.621094 345.78125 C 425.753906 346.453125 425.855469 347.132812 425.921875 347.8125 C 425.988281 348.496094 426.023438 349.183594 426.023438 349.867188 Z M 426.023438 349.867188 " fill-opacity="1" fill-rule="nonzero"/><path fill="#83948f" d="M 593.65625 349.867188 C 593.65625 350.554688 593.621094 351.238281 593.554688 351.921875 C 593.488281 352.605469 593.386719 353.285156 593.253906 353.957031 C 593.117188 354.632812 592.953125 355.296875 592.753906 355.953125 C 592.554688 356.609375 592.324219 357.253906 592.058594 357.890625 C 591.796875 358.523438 591.503906 359.144531 591.179688 359.75 C 590.855469 360.355469 590.503906 360.941406 590.125 361.511719 C 589.742188 362.085938 589.335938 362.636719 588.898438 363.164062 C 588.464844 363.695312 588.003906 364.203125 587.519531 364.691406 C 587.03125 365.175781 586.523438 365.636719 585.992188 366.070312 C 585.464844 366.507812 584.914062 366.914062 584.34375 367.296875 C 583.773438 367.679688 583.183594 368.03125 582.578125 368.355469 C 581.972656 368.675781 581.355469 368.972656 580.71875 369.234375 C 580.085938 369.496094 579.441406 369.726562 578.785156 369.925781 C 578.125 370.125 577.460938 370.292969 576.789062 370.425781 C 576.117188 370.558594 575.4375 370.660156 574.753906 370.726562 C 574.070312 370.796875 573.386719 370.828125 572.699219 370.828125 C 572.015625 370.828125 571.328125 370.796875 570.648438 370.726562 C 569.964844 370.660156 569.285156 370.558594 568.613281 370.425781 C 567.9375 370.292969 567.273438 370.125 566.617188 369.925781 C 565.960938 369.726562 565.316406 369.496094 564.679688 369.234375 C 564.046875 368.972656 563.429688 368.675781 562.824219 368.355469 C 562.21875 368.03125 561.628906 367.679688 561.058594 367.296875 C 560.488281 366.914062 559.9375 366.507812 559.40625 366.070312 C 558.875 365.636719 558.367188 365.175781 557.882812 364.691406 C 557.398438 364.203125 556.9375 363.695312 556.503906 363.164062 C 556.066406 362.636719 555.660156 362.085938 555.277344 361.511719 C 554.894531 360.941406 554.542969 360.355469 554.21875 359.75 C 553.898438 359.144531 553.601562 358.523438 553.339844 357.890625 C 553.078125 357.253906 552.847656 356.609375 552.648438 355.953125 C 552.449219 355.296875 552.28125 354.632812 552.148438 353.957031 C 552.015625 353.285156 551.914062 352.605469 551.847656 351.921875 C 551.78125 351.238281 551.746094 350.554688 551.746094 349.867188 C 551.746094 349.183594 551.78125 348.496094 551.847656 347.8125 C 551.914062 347.132812 552.015625 346.453125 552.148438 345.78125 C 552.28125 345.105469 552.449219 344.441406 552.648438 343.785156 C 552.847656 343.128906 553.078125 342.480469 553.339844 341.847656 C 553.605469 341.214844 553.898438 340.59375 554.21875 339.988281 C 554.542969 339.382812 554.894531 338.792969 555.277344 338.222656 C 555.660156 337.652344 556.066406 337.101562 556.503906 336.570312 C 556.9375 336.042969 557.398438 335.53125 557.882812 335.046875 C 558.367188 334.5625 558.875 334.101562 559.40625 333.667969 C 559.9375 333.230469 560.488281 332.824219 561.058594 332.441406 C 561.628906 332.058594 562.21875 331.707031 562.824219 331.382812 C 563.429688 331.058594 564.046875 330.765625 564.679688 330.503906 C 565.316406 330.242188 565.960938 330.011719 566.617188 329.8125 C 567.273438 329.613281 567.9375 329.445312 568.613281 329.3125 C 569.285156 329.175781 569.964844 329.078125 570.648438 329.007812 C 571.328125 328.941406 572.015625 328.910156 572.699219 328.910156 C 573.386719 328.910156 574.070312 328.941406 574.753906 329.007812 C 575.4375 329.078125 576.117188 329.175781 576.789062 329.3125 C 577.460938 329.445312 578.125 329.613281 578.785156 329.8125 C 579.441406 330.011719 580.085938 330.242188 580.71875 330.503906 C 581.355469 330.765625 581.972656 331.058594 582.578125 331.382812 C 583.183594 331.707031 583.773438 332.058594 584.34375 332.441406 C 584.914062 332.824219 585.464844 333.230469 585.992188 333.667969 C 586.523438 334.101562 587.03125 334.5625 587.519531 335.046875 C 588.003906 335.53125 588.464844 336.042969 588.898438 336.570312 C 589.335938 337.101562 589.742188 337.652344 590.125 338.222656 C 590.503906 338.792969 590.855469 339.382812 591.179688 339.988281 C 591.503906 340.59375 591.796875 341.214844 592.058594 341.847656 C 592.324219 342.480469 592.554688 343.128906 592.753906 343.785156 C 592.953125 344.441406 593.117188 345.105469 593.253906 345.78125 C 593.386719 346.453125 593.488281 347.132812 593.554688 347.8125 C 593.621094 348.496094 593.65625 349.183594 593.65625 349.867188 Z M 593.65625 349.867188 " fill-opacity="1" fill-rule="nonzero"/><g clip-path="url(#bd006f6c10)"><path fill="#83948f" d="M 645.339844 98.355469 L 164.796875 98.355469 C 100.863281 98.355469 48.847656 150.382812 48.847656 214.332031 L 48.847656 485.40625 C 48.847656 549.359375 100.863281 601.382812 164.796875 601.382812 L 237.4375 601.382812 L 237.4375 685.222656 C 237.4375 702.042969 256.234375 711.855469 270.011719 702.660156 L 421.890625 601.382812 L 645.34375 601.382812 C 709.277344 601.382812 761.289062 549.359375 761.289062 485.40625 L 761.289062 214.328125 C 761.289062 150.378906 709.273438 98.355469 645.339844 98.355469 Z M 237.4375 412.746094 C 202.773438 412.746094 174.574219 384.542969 174.574219 349.867188 C 174.574219 315.195312 202.773438 286.988281 237.4375 286.988281 C 272.101562 286.988281 300.300781 315.195312 300.300781 349.867188 C 300.300781 384.542969 272.097656 412.746094 237.4375 412.746094 Z M 405.066406 412.746094 C 370.40625 412.746094 342.207031 384.542969 342.207031 349.867188 C 342.207031 315.195312 370.40625 286.988281 405.066406 286.988281 C 439.730469 286.988281 467.929688 315.195312 467.929688 349.867188 C 467.929688 384.542969 439.730469 412.746094 405.066406 412.746094 Z M 572.699219 412.746094 C 538.039062 412.746094 509.835938 384.542969 509.835938 349.867188 C 509.835938 315.195312 538.035156 286.988281 572.699219 286.988281 C 607.363281 286.988281 635.5625 315.195312 635.5625 349.867188 C 635.5625 384.542969 607.363281 412.746094 572.699219 412.746094 Z M 572.699219 412.746094 " fill-opacity="1" fill-rule="nonzero"/></g><path fill="#83948f" d="M 258.390625 349.867188 C 258.390625 350.554688 258.355469 351.238281 258.289062 351.921875 C 258.222656 352.605469 258.121094 353.285156 257.988281 353.957031 C 257.855469 354.632812 257.6875 355.296875 257.488281 355.953125 C 257.289062 356.609375 257.058594 357.253906 256.796875 357.890625 C 256.53125 358.523438 256.238281 359.144531 255.917969 359.75 C 255.59375 360.355469 255.242188 360.941406 254.859375 361.511719 C 254.476562 362.085938 254.070312 362.636719 253.632812 363.164062 C 253.199219 363.695312 252.738281 364.203125 252.253906 364.691406 C 251.769531 365.175781 251.261719 365.636719 250.730469 366.070312 C 250.199219 366.507812 249.648438 366.914062 249.078125 367.296875 C 248.507812 367.679688 247.917969 368.03125 247.3125 368.355469 C 246.707031 368.675781 246.089844 368.972656 245.457031 369.234375 C 244.820312 369.496094 244.175781 369.726562 243.519531 369.925781 C 242.863281 370.125 242.199219 370.292969 241.523438 370.425781 C 240.851562 370.558594 240.171875 370.660156 239.488281 370.726562 C 238.808594 370.796875 238.121094 370.828125 237.4375 370.828125 C 236.75 370.828125 236.066406 370.796875 235.382812 370.726562 C 234.699219 370.660156 234.019531 370.558594 233.347656 370.425781 C 232.675781 370.292969 232.011719 370.125 231.351562 369.925781 C 230.695312 369.726562 230.050781 369.496094 229.417969 369.234375 C 228.78125 368.972656 228.164062 368.675781 227.558594 368.355469 C 226.953125 368.03125 226.363281 367.679688 225.792969 367.296875 C 225.222656 366.914062 224.671875 366.507812 224.144531 366.070312 C 223.613281 365.636719 223.105469 365.175781 222.617188 364.691406 C 222.132812 364.203125 221.671875 363.695312 221.238281 363.164062 C 220.800781 362.636719 220.394531 362.085938 220.011719 361.511719 C 219.632812 360.941406 219.277344 360.355469 218.957031 359.75 C 218.632812 359.144531 218.339844 358.523438 218.078125 357.890625 C 217.8125 357.253906 217.582031 356.609375 217.382812 355.953125 C 217.183594 355.296875 217.019531 354.632812 216.882812 353.957031 C 216.75 353.285156 216.648438 352.605469 216.582031 351.921875 C 216.515625 351.238281 216.480469 350.554688 216.480469 349.867188 C 216.480469 349.183594 216.515625 348.496094 216.582031 347.8125 C 216.648438 347.132812 216.75 346.453125 216.882812 345.78125 C 217.019531 345.105469 217.183594 344.441406 217.382812 343.785156 C 217.582031 343.128906 217.8125 342.480469 218.078125 341.847656 C 218.339844 341.214844 218.632812 340.59375 218.957031 339.988281 C 219.277344 339.382812 219.632812 338.792969 220.011719 338.222656 C 220.394531 337.652344 220.800781 337.101562 221.238281 336.570312 C 221.671875 336.042969 222.132812 335.53125 222.617188 335.046875 C 223.105469 334.5625 223.613281 334.101562 224.144531 333.667969 C 224.671875 333.230469 225.222656 332.824219 225.792969 332.441406 C 226.363281 332.058594 226.953125 331.707031 227.558594 331.382812 C 228.164062 331.058594 228.78125 330.765625 229.417969 330.503906 C 230.050781 330.242188 230.695312 330.011719 231.351562 329.8125 C 232.011719 329.613281 232.675781 329.445312 233.347656 329.3125 C 234.019531 329.175781 234.699219 329.078125 235.382812 329.007812 C 236.066406 328.941406 236.75 328.910156 237.4375 328.910156 C 238.121094 328.910156 238.808594 328.941406 239.488281 329.007812 C 240.171875 329.078125 240.851562 329.175781 241.523438 329.3125 C 242.199219 329.445312 242.863281 329.613281 243.519531 329.8125 C 244.175781 330.011719 244.820312 330.242188 245.457031 330.503906 C 246.089844 330.765625 246.707031 331.058594 247.3125 331.382812 C 247.917969 331.707031 248.507812 332.058594 249.078125 332.441406 C 249.648438 332.824219 250.199219 333.230469 250.730469 333.667969 C 251.261719 334.101562 251.769531 334.5625 252.253906 335.046875 C 252.738281 335.53125 253.199219 336.042969 253.632812 336.570312 C 254.070312 337.101562 254.476562 337.652344 254.859375 338.222656 C 255.242188 338.792969 255.59375 339.382812 255.917969 339.988281 C 256.238281 340.59375 256.53125 341.214844 256.796875 341.847656 C 257.058594 342.480469 257.289062 343.128906 257.488281 343.785156 C 257.6875 344.441406 257.855469 345.105469 257.988281 345.78125 C 258.121094 346.453125 258.222656 347.132812 258.289062 347.8125 C 258.355469 348.496094 258.390625 349.183594 258.390625 349.867188 Z M 258.390625 349.867188 " fill-opacity="1" fill-rule="nonzero"/></svg>