<svg xmlns="http://www.w3.org/2000/svg" xmlns:xlink="http://www.w3.org/1999/xlink" width="1080" zoomAndPan="magnify" viewBox="0 0 810 809.999993" height="1080" preserveAspectRatio="xMidYMid meet" version="1.0"><defs><clipPath id="2be9baf408"><path d="M 128.855469 16.0625 L 680.855469 16.0625 L 680.855469 793.8125 L 128.855469 793.8125 Z M 128.855469 16.0625 " clip-rule="nonzero"/></clipPath></defs><g clip-path="url(#2be9baf408)"><path fill="#83948f" d="M 680.800781 793.8125 L 680.800781 94.929688 C 680.800781 74.015625 672.496094 53.953125 657.710938 39.164062 C 642.925781 24.375 622.871094 16.0625 601.964844 16.0625 L 207.765625 16.0625 C 186.859375 16.0625 166.804688 24.375 152.019531 39.164062 C 137.234375 53.953125 128.929688 74.015625 128.929688 94.929688 L 128.929688 793.8125 L 404.863281 613.5625 Z M 247.1875 252.664062 L 352.320312 239.535156 L 404.863281 134.367188 L 457.410156 239.535156 L 562.542969 252.664062 L 474.914062 327.15625 L 509.996094 449.835938 L 404.863281 379.722656 L 299.734375 449.835938 L 334.816406 327.15625 Z M 247.1875 252.664062 " fill-opacity="1" fill-rule="nonzero"/></g></svg>