<svg xmlns="http://www.w3.org/2000/svg" xmlns:xlink="http://www.w3.org/1999/xlink" width="1080" zoomAndPan="magnify" viewBox="0 0 810 809.999993" height="1080" preserveAspectRatio="xMidYMid meet" version="1.0"><path fill="#83948f" d="M 742.304688 237.824219 C 721.035156 233.894531 691.824219 245.222656 660.859375 267.121094 C 677.324219 242.253906 691.699219 212.789062 701.9375 181.027344 C 731.648438 88.871094 715.476562 12.097656 665.832031 9.503906 C 618.652344 6.996094 558.1875 72.488281 526.804688 158.082031 C 497.382812 137.476562 468.214844 127.949219 445.523438 134.132812 C 406.074219 144.875 398.429688 199.667969 422.832031 265.28125 C 408.289062 261.101562 394.792969 260.390625 383.21875 263.820312 C 335.746094 277.902344 339.421875 356.183594 391.535156 438.640625 C 411.382812 470.070312 436.207031 503.214844 471.601562 528.457031 C 484.597656 537.734375 499.472656 545.925781 514.769531 553.742188 C 525.046875 558.964844 538.335938 567.03125 553.714844 566.152344 C 573.355469 565.066406 590.28125 548.894531 599.890625 539.488281 C 614.976562 524.652344 636.664062 512.699219 652.167969 498.03125 C 669.550781 481.648438 684.761719 464.386719 698.386719 446.875 C 706.703125 436.132812 714.476562 425.269531 721.664062 414.316406 C 779.789062 325.507812 789.027344 246.476562 742.304688 237.824219 " fill-opacity="1" fill-rule="nonzero"/><path fill="#a9bdb1" d="M 642.265625 99.234375 C 642.265625 99.234375 639.214844 108.679688 634.492188 125.566406 C 629.726562 142.367188 623.292969 166.566406 616.566406 195.738281 C 609.753906 224.910156 602.734375 259.097656 596.714844 295.875 C 593.621094 314.222656 590.988281 333.28125 588.609375 352.546875 C 587.394531 362.203125 586.433594 371.980469 585.390625 381.71875 C 584.554688 391.5 583.550781 401.277344 582.925781 411.101562 C 582.339844 420.878906 581.546875 430.660156 581.296875 440.398438 C 580.835938 450.136719 580.5 459.789062 580.5 469.359375 C 580.460938 474.125 580.417969 478.890625 580.375 483.613281 C 580.460938 488.335938 580.585938 493.058594 580.667969 497.695312 C 580.710938 507.015625 581.335938 516.167969 581.796875 525.15625 C 582.839844 543.082031 584.722656 560.21875 586.980469 576.183594 C 588.023438 584.25 589.652344 591.816406 590.90625 599.253906 C 592.203125 606.652344 594.125 613.589844 595.585938 620.320312 C 596.296875 623.703125 597.132812 626.921875 598.136719 630.015625 C 599.011719 633.148438 599.933594 636.199219 600.769531 639.167969 C 602.355469 645.144531 604.363281 650.535156 606.242188 655.59375 C 609.628906 665.957031 613.679688 674.230469 616.691406 681.171875 C 618.070312 684.679688 619.78125 687.523438 621.160156 690.070312 C 622.5 692.621094 623.667969 694.792969 624.628906 696.507812 C 626.46875 700.019531 627.472656 701.859375 627.472656 701.859375 L 628.808594 704.40625 C 641.21875 727.851562 632.320312 756.898438 608.917969 769.355469 C 585.472656 781.808594 556.429688 772.867188 543.976562 749.460938 C 543.101562 747.789062 542.222656 745.824219 541.554688 744.109375 C 541.554688 744.109375 540.507812 741.394531 538.546875 736.253906 C 537.585938 733.746094 536.371094 730.570312 534.992188 726.851562 C 533.613281 723.128906 531.859375 718.953125 530.5625 714.101562 C 527.765625 704.449219 524.003906 692.832031 521.371094 679.414062 C 519.867188 672.6875 518.234375 665.582031 517.234375 658.101562 C 516.648438 654.339844 516.0625 650.535156 515.4375 646.566406 C 514.769531 642.679688 514.265625 638.664062 513.890625 634.570312 C 513.179688 626.421875 512.050781 617.894531 511.632812 609.160156 C 511.257812 600.425781 510.546875 591.355469 510.503906 582.160156 C 510.253906 563.730469 510.671875 544.464844 512.050781 524.738281 C 512.804688 514.875 513.390625 504.886719 514.640625 494.855469 C 515.1875 489.839844 515.730469 484.78125 516.273438 479.726562 C 516.941406 474.710938 517.652344 469.609375 518.363281 464.554688 C 519.65625 454.398438 521.328125 444.242188 523.082031 434.085938 C 524.671875 423.890625 526.804688 413.773438 528.765625 403.660156 C 530.6875 393.503906 533.070312 383.515625 535.160156 373.484375 C 537.585938 363.539062 539.882812 353.632812 542.347656 343.855469 C 547.40625 324.335938 552.585938 305.238281 558.144531 286.929688 C 569.050781 250.277344 580.585938 216.632812 591.199219 188.132812 C 601.773438 159.585938 611.300781 136.140625 618.277344 119.839844 C 625.171875 103.542969 629.519531 94.304688 629.519531 94.304688 C 631.105469 90.878906 635.160156 89.371094 638.585938 90.960938 C 641.761719 92.425781 643.269531 96.019531 642.265625 99.234375 " fill-opacity="1" fill-rule="nonzero"/><path fill="#a9bdb1" d="M 523.210938 476.214844 C 523.210938 476.214844 522.75 475.710938 521.914062 474.710938 C 521.078125 473.707031 519.78125 472.242188 518.195312 470.40625 C 515.058594 466.726562 510.421875 461.710938 504.949219 455.695312 C 502.191406 452.726562 499.140625 449.507812 495.964844 446.121094 C 492.789062 442.78125 489.359375 439.269531 485.890625 435.632812 C 478.871094 428.359375 471.390625 420.628906 463.910156 412.898438 C 460.316406 408.925781 456.515625 405.164062 452.960938 401.195312 C 449.410156 397.265625 445.859375 393.464844 442.515625 389.617188 C 439.171875 385.816406 435.953125 382.136719 433.03125 378.5 C 430.019531 374.90625 427.222656 371.519531 424.839844 368.136719 C 422.332031 364.875 420.035156 361.867188 418.238281 358.898438 C 416.441406 355.972656 414.601562 353.757812 413.554688 351.335938 C 411.175781 346.78125 409.835938 344.1875 409.835938 344.1875 C 408.082031 340.84375 409.417969 336.707031 412.761719 334.992188 C 416.0625 333.28125 420.199219 334.574219 421.914062 337.878906 C 421.957031 337.917969 421.957031 337.960938 421.957031 337.960938 L 422.457031 338.964844 C 422.457031 338.964844 423.5 341.09375 425.339844 344.773438 C 426.132812 346.613281 427.929688 348.785156 429.519531 351.25 C 431.148438 353.800781 433.363281 356.476562 435.828125 359.402344 C 438.210938 362.367188 441.054688 365.378906 444.144531 368.554688 C 447.113281 371.8125 450.621094 374.992188 454.132812 378.292969 C 457.601562 381.675781 461.570312 384.855469 465.414062 388.195312 C 469.261719 391.539062 473.398438 394.800781 477.492188 398.019531 C 481.628906 401.152344 485.808594 404.328125 489.902344 407.421875 C 494.082031 410.429688 498.21875 413.316406 502.273438 416.113281 C 510.464844 421.546875 518.277344 426.355469 525.171875 430.285156 C 532.027344 434.128906 537.917969 437.136719 542.097656 439.101562 C 544.1875 440.148438 545.773438 440.816406 546.902344 441.273438 C 548.03125 441.777344 548.660156 442.070312 548.660156 442.070312 C 559.773438 446.832031 564.871094 459.746094 560.023438 470.824219 C 555.21875 481.941406 542.347656 487.039062 531.273438 482.234375 C 528.054688 480.851562 525.296875 478.722656 523.210938 476.214844 " fill-opacity="1" fill-rule="nonzero"/><path fill="#a9bdb1" d="M 558.980469 398.058594 C 558.980469 398.058594 561.863281 396.890625 566.710938 394.714844 C 571.515625 392.5 578.453125 389.449219 586.644531 385.4375 C 590.738281 383.390625 595.210938 381.257812 599.847656 378.835938 C 604.488281 376.410156 609.335938 373.820312 614.390625 371.144531 C 619.40625 368.429688 624.589844 365.628906 629.769531 362.621094 C 634.953125 359.609375 640.175781 356.515625 645.398438 353.464844 C 650.707031 350.457031 655.804688 347.15625 660.820312 343.894531 C 665.832031 340.636719 670.765625 337.460938 675.488281 334.285156 C 680.292969 331.191406 684.597656 327.804688 688.773438 324.671875 C 692.914062 321.535156 696.882812 318.609375 700.433594 315.808594 C 704.152344 313.136719 707.035156 310.167969 709.792969 307.746094 C 712.511719 305.277344 714.851562 303.105469 716.730469 301.265625 C 720.535156 297.628906 722.707031 295.539062 722.707031 295.539062 L 723.042969 295.25 C 724.839844 293.492188 727.765625 293.535156 729.5625 295.375 C 731.316406 297.210938 731.273438 300.136719 729.394531 301.894531 C 729.308594 301.976562 729.183594 302.101562 729.058594 302.1875 C 729.058594 302.1875 726.636719 304.109375 722.375 307.453125 C 720.285156 309.164062 717.734375 311.214844 714.851562 313.636719 C 713.386719 314.847656 711.882812 316.144531 710.253906 317.480469 C 708.667969 318.902344 706.953125 320.28125 705.074219 321.621094 C 701.355469 324.335938 697.425781 327.386719 693.246094 330.605469 C 689.027344 333.738281 684.804688 337.417969 680.167969 340.71875 C 670.847656 347.449219 661.195312 355.054688 651.289062 362.285156 C 631.566406 376.828125 611.800781 391.414062 596.964844 402.363281 C 589.570312 407.921875 583.382812 412.605469 579.082031 415.824219 C 574.777344 419.125 572.351562 421.003906 572.351562 421.003906 L 572.183594 421.128906 C 566.292969 425.644531 557.894531 424.515625 553.378906 418.664062 C 548.867188 412.773438 549.953125 404.371094 555.847656 399.859375 C 556.808594 399.105469 557.933594 398.476562 558.980469 398.058594 " fill-opacity="1" fill-rule="nonzero"/><path fill="#a9bdb1" d="M 561.488281 319.613281 C 561.488281 319.613281 554.175781 312.886719 543.226562 302.8125 C 537.835938 297.796875 531.566406 291.90625 524.964844 285.550781 C 518.320312 279.199219 511.382812 272.261719 504.65625 265.113281 C 501.269531 261.5625 497.96875 257.882812 494.792969 254.25 C 491.574219 250.613281 488.609375 246.851562 485.683594 243.214844 C 482.839844 239.578125 480.125 235.941406 477.703125 232.347656 C 475.320312 228.796875 473.1875 225.285156 471.347656 221.941406 C 469.46875 218.640625 467.921875 215.464844 466.667969 212.582031 C 465.457031 209.613281 464.496094 207.023438 463.910156 204.722656 C 463.160156 202.550781 462.867188 200.667969 462.574219 199.414062 C 462.324219 198.160156 462.15625 197.492188 462.15625 197.492188 C 461.488281 194.273438 463.578125 191.140625 466.792969 190.472656 C 470.011719 189.804688 473.1875 191.851562 473.855469 195.070312 C 473.855469 195.152344 473.855469 195.195312 473.898438 195.277344 L 473.980469 195.863281 C 473.980469 195.863281 474.066406 196.40625 474.234375 197.367188 C 474.441406 198.328125 474.527344 199.75 475.109375 201.589844 C 475.527344 203.386719 476.363281 205.558594 477.324219 208.109375 C 478.410156 210.574219 479.664062 213.417969 481.378906 216.382812 C 483.050781 219.351562 485.097656 222.484375 487.355469 225.703125 C 489.652344 228.964844 492.242188 232.308594 495 235.691406 C 500.644531 242.421875 507.164062 249.234375 514.058594 255.710938 C 520.953125 262.148438 528.183594 268.332031 535.160156 273.847656 C 542.179688 279.324219 548.949219 284.128906 554.886719 288.058594 C 560.777344 292.070312 565.917969 295.121094 569.46875 297.171875 C 571.222656 298.257812 572.644531 299.007812 573.605469 299.511719 C 574.566406 300.011719 575.070312 300.261719 575.070312 300.261719 C 580.878906 303.355469 583.132812 310.542969 580.082031 316.355469 C 577.03125 322.164062 569.84375 324.417969 563.996094 321.367188 C 563.117188 320.867188 562.238281 320.242188 561.488281 319.613281 " fill-opacity="1" fill-rule="nonzero"/><path fill="#a9bdb1" d="M 501.8125 245.890625 C 501.8125 245.890625 501.9375 245.765625 502.230469 245.554688 C 502.441406 245.429688 502.816406 245.136719 503.359375 244.679688 C 504.402344 243.800781 505.910156 242.421875 507.621094 240.582031 C 511.046875 236.902344 515.019531 231.34375 517.609375 225.035156 C 518.320312 223.445312 518.78125 221.816406 519.324219 220.1875 C 519.90625 218.597656 520.074219 216.925781 520.492188 215.339844 C 520.910156 213.75 520.910156 212.164062 521.121094 210.65625 C 521.371094 209.152344 521.328125 207.730469 521.328125 206.394531 C 521.285156 205.097656 521.414062 203.84375 521.285156 202.757812 C 521.160156 201.671875 521.078125 200.710938 520.996094 199.957031 C 520.828125 198.371094 520.742188 197.449219 520.742188 197.449219 L 520.703125 197.160156 C 520.535156 195.695312 521.621094 194.359375 523.082031 194.234375 C 524.421875 194.109375 525.589844 194.902344 525.925781 196.113281 C 525.925781 196.113281 526.21875 197.074219 526.71875 198.703125 C 526.96875 199.582031 527.261719 200.585938 527.640625 201.753906 C 528.015625 202.882812 528.140625 204.304688 528.433594 205.769531 C 528.726562 207.230469 529.058594 208.859375 529.144531 210.617188 C 529.226562 212.328125 529.5625 214.210938 529.4375 216.089844 C 529.351562 218.011719 529.4375 220.0625 529.101562 222.066406 C 528.890625 224.074219 528.683594 226.164062 528.183594 228.167969 C 526.550781 236.359375 523 244.09375 519.617188 249.484375 C 517.945312 252.199219 516.3125 254.332031 515.101562 255.878906 C 514.515625 256.589844 513.972656 257.214844 513.515625 257.71875 C 513.179688 258.09375 512.972656 258.300781 512.972656 258.300781 C 509.878906 261.730469 504.53125 261.980469 501.144531 258.847656 C 497.71875 255.710938 497.46875 250.402344 500.601562 246.976562 C 500.9375 246.558594 501.3125 246.222656 501.730469 245.929688 L 501.8125 245.890625 " fill-opacity="1" fill-rule="nonzero"/><path fill="#a9bdb1" d="M 483.511719 419.5 C 483.511719 419.5 483.59375 419.332031 483.800781 419.039062 C 483.96875 418.832031 484.179688 418.414062 484.554688 417.828125 C 485.179688 416.617188 486.144531 414.863281 487.105469 412.644531 C 489.109375 408.214844 491.367188 401.945312 492.578125 395.46875 C 493.246094 392.210938 493.621094 388.90625 493.832031 385.816406 C 493.957031 384.226562 493.914062 382.765625 493.914062 381.300781 C 493.957031 379.878906 493.914062 378.5 493.75 377.289062 C 493.621094 374.738281 493.289062 372.648438 493.039062 371.230469 C 492.828125 369.765625 492.660156 368.929688 492.660156 368.929688 L 492.621094 368.636719 C 492.328125 366.882812 493.539062 365.210938 495.292969 364.960938 C 496.839844 364.707031 498.304688 365.585938 498.804688 367.050781 C 498.804688 367.050781 499.140625 367.886719 499.683594 369.472656 C 500.265625 370.976562 501.019531 373.191406 501.6875 375.953125 C 502.105469 377.289062 502.441406 378.792969 502.691406 380.382812 C 502.984375 382.011719 503.316406 383.683594 503.484375 385.4375 C 503.945312 388.949219 504.195312 392.753906 504.113281 396.597656 C 504.027344 404.203125 502.859375 411.808594 501.4375 417.453125 C 500.769531 420.253906 500.015625 422.59375 499.472656 424.265625 C 499.179688 425.101562 498.929688 425.769531 498.722656 426.3125 C 498.554688 426.773438 498.46875 426.980469 498.46875 426.980469 C 496.800781 431.328125 491.910156 433.460938 487.605469 431.746094 C 483.257812 430.074219 481.128906 425.226562 482.839844 420.878906 C 483.007812 420.417969 483.257812 419.917969 483.511719 419.5 " fill-opacity="1" fill-rule="nonzero"/><path fill="#a9bdb1" d="M 462.113281 398.855469 C 462.113281 398.855469 461.90625 399.023438 461.445312 399.355469 C 460.902344 399.691406 460.066406 400.273438 459.1875 400.777344 C 457.308594 401.945312 454.632812 403.410156 451.332031 404.996094 C 449.703125 405.792969 447.863281 406.542969 445.898438 407.296875 C 443.894531 407.964844 441.886719 408.84375 439.589844 409.386719 L 436.207031 410.265625 C 434.992188 410.429688 433.78125 410.640625 432.570312 410.847656 C 430.1875 411.351562 427.554688 411.226562 425.089844 411.351562 C 423.835938 411.308594 422.539062 411.140625 421.328125 411.015625 C 420.074219 410.890625 418.820312 410.765625 417.609375 410.347656 C 416.398438 410.054688 415.226562 409.679688 414.058594 409.386719 C 412.84375 409.050781 411.800781 408.382812 410.757812 407.882812 C 409.710938 407.339844 408.667969 406.878906 407.707031 406.292969 C 406.828125 405.625 405.949219 404.957031 405.113281 404.289062 C 404.277344 403.660156 403.441406 403.035156 402.734375 402.40625 C 402.105469 401.65625 401.480469 400.945312 400.894531 400.273438 C 399.765625 398.855469 398.554688 397.769531 397.886719 396.515625 C 397.132812 395.300781 396.507812 394.214844 396.003906 393.335938 C 395.003906 391.625 394.417969 390.664062 394.417969 390.664062 C 394.039062 389.996094 394.25 389.117188 394.917969 388.742188 C 395.460938 388.40625 396.214844 388.53125 396.632812 389.03125 L 396.800781 389.199219 C 396.800781 389.199219 397.507812 389.996094 398.761719 391.414062 C 399.390625 392.082031 400.140625 392.960938 400.976562 393.921875 C 401.8125 394.925781 403.109375 395.636719 404.277344 396.640625 C 404.863281 397.097656 405.53125 397.601562 406.160156 398.101562 C 406.871094 398.519531 407.664062 398.855469 408.414062 399.273438 C 409.167969 399.648438 409.960938 400.066406 410.757812 400.441406 C 411.59375 400.777344 412.46875 400.945312 413.347656 401.195312 C 414.265625 401.363281 415.101562 401.78125 416.019531 401.820312 C 416.941406 401.863281 417.859375 401.945312 418.820312 401.988281 C 420.660156 402.238281 422.625 401.738281 424.503906 401.613281 C 426.386719 401.070312 428.265625 400.859375 430.0625 400.066406 C 430.980469 399.730469 431.859375 399.398438 432.738281 399.0625 C 433.613281 398.644531 434.449219 398.226562 435.285156 397.808594 C 436.957031 397.097656 438.503906 396.011719 440.007812 395.21875 C 441.429688 394.214844 442.765625 393.335938 444.019531 392.460938 C 446.445312 390.621094 448.367188 388.992188 449.578125 387.820312 C 450.246094 387.234375 450.621094 386.859375 450.914062 386.566406 L 451.457031 386.023438 L 451.5 385.941406 C 454.800781 382.679688 460.109375 382.679688 463.367188 385.941406 C 466.667969 389.242188 466.667969 394.550781 463.367188 397.808594 C 462.992188 398.226562 462.574219 398.5625 462.113281 398.855469 " fill-opacity="1" fill-rule="nonzero"/><path fill="#a9bdb1" d="M 631.648438 368.011719 C 631.648438 368.011719 631.941406 368.09375 632.445312 368.21875 C 632.820312 368.34375 633.65625 368.554688 634.699219 368.804688 C 636.789062 369.265625 639.882812 369.890625 643.726562 370.308594 C 647.570312 370.6875 652.085938 371.019531 657.015625 370.9375 C 659.480469 370.976562 662.03125 370.8125 664.621094 370.644531 C 667.210938 370.519531 669.804688 370.101562 672.476562 369.847656 C 675.070312 369.390625 677.703125 368.972656 680.292969 368.554688 C 682.839844 367.96875 685.390625 367.382812 687.8125 366.839844 C 690.238281 366.171875 692.535156 365.503906 694.792969 364.835938 C 697.007812 364.25 699.011719 363.371094 700.9375 362.746094 C 704.78125 361.492188 707.871094 360.027344 710.046875 359.109375 C 712.261719 358.1875 713.515625 357.644531 713.515625 357.644531 L 713.640625 357.605469 C 715.101562 356.976562 716.730469 357.644531 717.359375 359.066406 C 717.945312 360.40625 717.402344 361.910156 716.1875 362.621094 C 716.1875 362.621094 714.976562 363.328125 712.84375 364.582031 C 710.714844 365.796875 707.707031 367.675781 703.902344 369.515625 C 701.980469 370.433594 699.972656 371.605469 697.71875 372.523438 C 695.460938 373.484375 693.078125 374.53125 690.65625 375.574219 C 688.148438 376.496094 685.515625 377.414062 682.882812 378.375 C 680.167969 379.167969 677.449219 380.046875 674.652344 380.800781 C 671.851562 381.46875 669.09375 382.261719 666.292969 382.765625 C 663.492188 383.265625 660.734375 383.808594 658.019531 384.101562 C 652.628906 384.894531 647.488281 385.1875 643.058594 385.273438 C 638.585938 385.355469 634.867188 385.105469 632.195312 384.855469 C 630.816406 384.6875 629.8125 384.601562 628.890625 384.4375 C 628.140625 384.308594 627.765625 384.269531 627.765625 384.269531 C 623.210938 383.515625 620.117188 379.210938 620.828125 374.65625 C 621.578125 370.058594 625.882812 366.964844 630.480469 367.71875 C 630.816406 367.761719 631.148438 367.84375 631.441406 367.925781 L 631.648438 368.011719 " fill-opacity="1" fill-rule="nonzero"/><path fill="#a9bdb1" d="M 666.835938 335.535156 C 666.835938 335.535156 668.382812 331.984375 670.261719 326.550781 C 672.144531 321.160156 674.273438 313.847656 676.070312 306.492188 C 677.910156 299.175781 679.5 291.777344 680.542969 286.179688 C 681.503906 280.578125 681.964844 276.816406 681.964844 276.816406 C 682.089844 275.730469 683.09375 274.976562 684.179688 275.105469 C 685.265625 275.230469 686.015625 276.230469 685.890625 277.320312 C 685.890625 277.402344 685.851562 277.484375 685.851562 277.570312 C 685.851562 277.570312 684.847656 281.246094 683.59375 286.765625 C 682.339844 292.324219 680.917969 299.761719 679.832031 307.242188 C 678.664062 314.765625 677.828125 322.289062 677.449219 328.015625 C 677.074219 333.738281 677.117188 337.585938 677.117188 337.585938 C 677.160156 340.550781 674.777344 342.976562 671.808594 343.019531 C 668.882812 343.058594 666.417969 340.675781 666.417969 337.710938 C 666.417969 336.957031 666.585938 336.207031 666.835938 335.535156 " fill-opacity="1" fill-rule="nonzero"/><path fill="#83948f" d="M 290.027344 343.769531 C 274.609375 358.941406 267.171875 389.367188 267.378906 427.316406 C 256.429688 399.566406 240.511719 370.9375 220.324219 344.3125 C 161.820312 267.203125 89.613281 236.484375 59.0625 275.6875 C 30.019531 312.96875 49.035156 400.023438 101.230469 474.75 C 67.503906 487.082031 43.015625 505.554688 35.035156 527.703125 C 21.289062 566.195312 61.78125 603.851562 129.5625 621.40625 C 117.777344 630.933594 109.503906 641.632812 105.699219 653.042969 C 90.03125 700.0625 156.304688 741.855469 253.714844 746.367188 C 290.863281 748.082031 332.234375 746.746094 373.1875 732.160156 C 388.230469 726.808594 403.484375 719.328125 418.652344 711.261719 C 428.808594 705.828125 443.015625 699.515625 451.125 686.4375 C 461.488281 669.675781 457.933594 646.566406 455.679688 633.273438 C 452.210938 612.460938 454.800781 587.84375 451.707031 566.699219 C 448.199219 543.042969 442.765625 520.683594 436.207031 499.492188 C 432.195312 486.539062 427.722656 473.957031 422.875 461.796875 C 383.34375 363.289062 323.878906 310.417969 290.027344 343.769531 " fill-opacity="1" fill-rule="nonzero"/><path fill="#a9bdb1" d="M 119.15625 346.445312 C 119.15625 346.445312 125.132812 354.300781 136.246094 367.886719 C 147.320312 381.425781 163.453125 400.527344 183.511719 422.761719 C 203.527344 445.035156 227.554688 470.363281 254.214844 496.359375 C 267.503906 509.398438 281.589844 522.4375 296.046875 535.519531 C 303.277344 541.996094 310.714844 548.390625 318.070312 554.828125 C 325.632812 561.097656 333.070312 567.535156 340.761719 573.675781 C 348.449219 579.777344 356.011719 586.007812 363.828125 591.773438 C 371.558594 597.707031 379.289062 603.558594 387.105469 609.035156 C 391.03125 611.792969 394.917969 614.550781 398.761719 617.308594 C 402.691406 619.902344 406.578125 622.535156 410.464844 625.125 C 418.109375 630.433594 426.007812 635.15625 433.613281 639.917969 C 448.910156 649.324219 463.996094 657.597656 478.410156 664.914062 C 485.597656 668.675781 492.785156 671.640625 499.558594 674.902344 C 506.367188 678.078125 513.136719 680.460938 519.488281 683.132812 C 522.664062 684.472656 525.800781 685.640625 528.890625 686.601562 C 531.984375 687.648438 534.992188 688.652344 537.917969 689.65625 C 543.726562 691.785156 549.328125 693.207031 554.550781 694.585938 C 564.957031 697.71875 574.023438 699.140625 581.460938 700.6875 C 585.179688 701.566406 588.484375 701.773438 591.324219 702.109375 C 594.207031 702.441406 596.632812 702.734375 598.59375 702.988281 C 602.523438 703.445312 604.613281 703.695312 604.613281 703.695312 L 607.453125 704.074219 C 633.78125 707.292969 652.503906 731.238281 649.285156 757.570312 C 646.066406 783.898438 622.121094 802.621094 595.796875 799.402344 C 593.914062 799.152344 591.824219 798.734375 590.027344 798.316406 C 590.027344 798.316406 587.1875 797.605469 581.878906 796.3125 C 579.246094 795.644531 575.988281 794.808594 572.144531 793.804688 C 568.300781 792.84375 563.828125 791.839844 559.105469 790.125 C 549.621094 786.949219 537.917969 783.355469 525.425781 777.796875 C 519.070312 775.207031 512.34375 772.445312 505.617188 768.976562 C 502.1875 767.304688 498.722656 765.59375 495.128906 763.878906 C 491.535156 762.164062 487.941406 760.285156 484.429688 758.238281 C 477.285156 754.183594 469.636719 750.214844 462.238281 745.574219 C 454.886719 740.851562 447.070312 736.253906 439.507812 731.03125 C 424.253906 720.664062 408.667969 709.296875 393.289062 696.882812 C 385.683594 690.617188 377.828125 684.386719 370.304688 677.660156 C 366.503906 674.316406 362.699219 670.972656 358.855469 667.628906 C 355.09375 664.160156 351.375 660.734375 347.570312 657.222656 C 340.007812 650.328125 332.652344 643.136719 325.339844 635.90625 C 317.859375 628.761719 310.839844 621.195312 303.609375 613.839844 C 296.464844 606.402344 289.570312 598.753906 282.589844 591.273438 C 275.820312 583.625 269.007812 576.058594 262.40625 568.410156 C 249.285156 553.113281 236.625 537.902344 224.796875 522.898438 C 201.019531 492.972656 180.042969 464.261719 162.742188 439.226562 C 145.398438 414.191406 131.652344 392.917969 122.289062 377.875 C 112.886719 362.871094 107.789062 354.050781 107.789062 354.050781 C 105.867188 350.792969 106.996094 346.570312 110.253906 344.691406 C 113.261719 342.933594 117.066406 343.726562 119.15625 346.445312 " fill-opacity="1" fill-rule="nonzero"/><path fill="#a9bdb1" d="M 359.941406 659.9375 C 359.941406 659.9375 359.273438 659.980469 357.976562 660.105469 C 356.683594 660.230469 354.757812 660.441406 352.292969 660.691406 C 347.488281 661.191406 340.71875 662.070312 332.652344 663.117188 C 328.640625 663.742188 324.296875 664.367188 319.699219 665.039062 C 315.101562 665.75 310.296875 666.5 305.28125 667.292969 C 295.335938 668.882812 284.722656 670.597656 274.109375 672.269531 C 268.757812 672.9375 263.492188 673.941406 258.226562 674.566406 C 252.960938 675.234375 247.78125 675.945312 242.765625 676.488281 C 237.710938 677.03125 232.863281 677.617188 228.183594 677.867188 C 223.542969 678.285156 219.15625 678.664062 215.019531 678.664062 C 210.882812 678.871094 207.121094 679.039062 203.695312 678.789062 C 200.226562 678.578125 197.34375 678.828125 194.75 678.328125 C 189.695312 677.617188 186.769531 677.242188 186.769531 677.242188 C 183.050781 676.78125 180.417969 673.355469 180.917969 669.636719 C 181.421875 665.875 184.847656 663.242188 188.566406 663.742188 L 188.648438 663.742188 L 189.738281 663.910156 C 189.738281 663.910156 192.078125 664.242188 196.171875 664.871094 C 198.136719 665.289062 200.894531 665.078125 203.859375 665.164062 C 206.871094 665.289062 210.339844 664.996094 214.140625 664.660156 C 217.945312 664.410156 222.039062 663.785156 226.425781 663.074219 C 230.773438 662.488281 235.371094 661.445312 240.132812 660.480469 C 244.898438 659.5625 249.746094 658.140625 254.71875 656.929688 C 259.648438 655.675781 264.664062 654.128906 269.636719 652.625 C 274.609375 651.035156 279.582031 649.40625 284.472656 647.820312 C 289.320312 646.148438 294.082031 644.390625 298.679688 642.636719 C 307.832031 639.085938 316.273438 635.40625 323.375 632.019531 C 330.523438 628.59375 336.332031 625.5 340.34375 623.203125 C 342.390625 622.074219 343.8125 621.15625 344.898438 620.527344 C 345.941406 619.859375 346.527344 619.484375 346.527344 619.484375 C 356.808594 613.128906 370.304688 616.347656 376.65625 626.628906 C 382.96875 636.953125 379.789062 650.453125 369.46875 656.761719 C 366.503906 658.601562 363.160156 659.644531 359.941406 659.9375 " fill-opacity="1" fill-rule="nonzero"/><path fill="#a9bdb1" d="M 316.355469 585.839844 C 316.355469 585.839844 317.066406 582.789062 318.070312 577.605469 C 318.988281 572.382812 320.492188 564.941406 321.832031 555.914062 C 322.5 551.402344 323.335938 546.511719 324.046875 541.328125 C 324.671875 536.105469 325.339844 530.671875 326.050781 524.988281 C 326.675781 519.34375 327.386719 513.496094 327.847656 507.519531 C 328.347656 501.542969 328.851562 495.480469 329.308594 489.421875 C 329.894531 483.359375 330.105469 477.300781 330.269531 471.324219 C 330.523438 465.347656 330.730469 459.457031 330.816406 453.769531 C 330.980469 448.085938 330.6875 442.613281 330.5625 437.386719 C 330.398438 432.207031 330.230469 427.273438 329.980469 422.761719 C 329.894531 418.203125 329.101562 414.109375 328.683594 410.472656 C 328.222656 406.835938 327.804688 403.660156 327.386719 401.070312 C 326.59375 395.886719 326.132812 392.878906 326.132812 392.878906 L 326.050781 392.460938 C 325.632812 389.953125 327.386719 387.613281 329.894531 387.195312 C 332.402344 386.777344 334.742188 388.488281 335.160156 391.039062 C 335.160156 391.164062 335.203125 391.332031 335.203125 391.457031 C 335.203125 391.457031 335.371094 394.550781 335.703125 399.984375 C 335.871094 402.699219 336.121094 405.960938 336.457031 409.71875 C 336.582031 411.558594 336.75 413.566406 336.957031 415.65625 C 337.207031 417.785156 337.332031 420 337.375 422.300781 C 337.5 426.898438 337.75 431.828125 338.003906 437.136719 C 338.128906 442.363281 338.710938 447.960938 338.753906 453.6875 C 338.921875 465.140625 339.671875 477.382812 339.925781 489.628906 C 340.550781 514.203125 341.179688 538.738281 341.679688 557.167969 C 341.972656 566.40625 342.265625 574.136719 342.433594 579.527344 C 342.683594 584.917969 342.808594 588.011719 342.808594 588.011719 L 342.851562 588.222656 C 343.140625 595.617188 337.417969 601.886719 330.019531 602.222656 C 322.625 602.554688 316.355469 596.832031 316.0625 589.433594 C 315.980469 588.222656 316.105469 586.96875 316.355469 585.839844 " fill-opacity="1" fill-rule="nonzero"/><path fill="#a9bdb1" d="M 253.507812 538.820312 L 229.269531 544.253906 C 222.039062 545.757812 213.679688 547.515625 204.65625 549.3125 C 195.628906 551.109375 186.015625 552.820312 176.28125 554.242188 C 171.433594 554.953125 166.542969 555.582031 161.738281 556.125 C 156.890625 556.625 152.128906 556.917969 147.488281 557.253906 C 142.851562 557.503906 138.335938 557.628906 134.03125 557.542969 C 129.726562 557.460938 125.632812 557.210938 121.832031 556.835938 C 118.070312 556.457031 114.558594 555.871094 111.46875 555.289062 C 108.332031 554.535156 105.660156 553.867188 103.445312 553.074219 C 101.230469 552.445312 99.515625 551.609375 98.34375 551.109375 C 97.175781 550.605469 96.546875 550.355469 96.546875 550.355469 C 93.496094 549.0625 92.117188 545.550781 93.414062 542.539062 C 94.710938 539.488281 98.21875 538.109375 101.230469 539.40625 C 101.3125 539.40625 101.355469 539.449219 101.394531 539.488281 L 101.980469 539.742188 C 101.980469 539.742188 102.441406 539.949219 103.316406 540.367188 C 104.238281 540.785156 105.492188 541.496094 107.289062 542.082031 C 109.042969 542.75 111.300781 543.335938 113.890625 544.003906 C 116.566406 544.546875 119.574219 545.089844 123 545.425781 C 126.386719 545.71875 130.105469 545.882812 134.074219 545.84375 C 138.085938 545.84375 142.265625 545.632812 146.652344 545.300781 C 155.386719 544.546875 164.707031 543.085938 173.941406 541.121094 C 183.21875 539.15625 192.371094 536.773438 200.894531 534.222656 C 209.417969 531.632812 217.234375 528.789062 223.878906 526.199219 C 230.523438 523.648438 235.953125 521.226562 239.675781 519.472656 C 241.554688 518.636719 243.015625 517.882812 243.976562 517.421875 C 244.9375 516.921875 245.441406 516.671875 245.441406 516.671875 C 251.292969 513.621094 258.4375 515.917969 261.445312 521.769531 C 264.496094 527.578125 262.199219 534.765625 256.390625 537.777344 C 255.46875 538.277344 254.425781 538.613281 253.507812 538.820312 " fill-opacity="1" fill-rule="nonzero"/><path fill="#a9bdb1" d="M 158.898438 545.589844 C 158.898438 545.589844 158.855469 545.382812 158.855469 545.007812 C 158.855469 544.753906 158.855469 544.296875 158.769531 543.585938 C 158.644531 542.25 158.394531 540.199219 157.851562 537.734375 C 156.847656 532.886719 154.550781 526.410156 150.832031 520.683594 C 149.953125 519.179688 148.910156 517.839844 147.863281 516.503906 C 146.902344 515.082031 145.648438 513.996094 144.5625 512.742188 C 143.519531 511.488281 142.222656 510.570312 141.09375 509.523438 C 140.007812 508.480469 138.796875 507.726562 137.710938 506.933594 C 136.625 506.179688 135.664062 505.386719 134.703125 504.925781 C 133.738281 504.382812 132.90625 503.882812 132.234375 503.503906 C 130.855469 502.753906 130.019531 502.292969 130.019531 502.292969 L 129.769531 502.167969 C 128.476562 501.457031 128.015625 499.828125 128.765625 498.492188 C 129.394531 497.363281 130.730469 496.859375 131.902344 497.277344 C 131.902344 497.277344 132.863281 497.570312 134.535156 498.113281 C 135.328125 498.40625 136.332031 498.742188 137.5 499.117188 C 138.671875 499.453125 139.882812 500.121094 141.261719 500.746094 C 142.640625 501.375 144.144531 502 145.648438 502.960938 C 147.113281 503.882812 148.824219 504.675781 150.289062 505.886719 C 151.835938 507.015625 153.546875 508.101562 155.011719 509.523438 C 156.515625 510.863281 158.101562 512.242188 159.480469 513.785156 C 165.25 519.847656 169.59375 527.160156 172.019531 533.011719 C 173.3125 535.9375 174.148438 538.488281 174.691406 540.367188 C 174.945312 541.285156 175.152344 542.082031 175.277344 542.707031 C 175.402344 543.210938 175.488281 543.503906 175.488281 543.503906 C 176.488281 548.015625 173.605469 552.53125 169.09375 553.53125 C 164.582031 554.535156 160.109375 551.695312 159.0625 547.179688 C 158.980469 546.679688 158.898438 546.136719 158.898438 545.632812 L 158.898438 545.59375 " fill-opacity="1" fill-rule="nonzero"/><path fill="#a9bdb1" d="M 290.738281 659.980469 L 290.488281 659.480469 C 290.40625 659.269531 290.238281 658.808594 289.902344 658.183594 C 289.320312 656.972656 288.398438 655.175781 287.144531 653.125 C 284.679688 648.90625 280.835938 643.515625 276.195312 638.792969 C 273.941406 636.367188 271.433594 634.195312 269.007812 632.230469 C 267.796875 631.226562 266.542969 630.390625 265.375 629.597656 C 264.203125 628.71875 263.074219 628.007812 261.988281 627.382812 C 259.816406 626.042969 257.9375 625.125 256.597656 624.539062 L 254.507812 623.496094 L 254.257812 623.371094 C 252.628906 622.617188 251.960938 620.695312 252.753906 619.105469 C 253.421875 617.6875 255.011719 616.976562 256.472656 617.394531 C 256.472656 617.394531 257.390625 617.644531 258.9375 618.0625 C 260.566406 618.480469 262.78125 619.105469 265.414062 620.152344 C 266.753906 620.609375 268.175781 621.15625 269.679688 621.863281 C 271.140625 622.535156 272.730469 623.203125 274.234375 624.082031 C 277.410156 625.75 280.667969 627.757812 283.71875 629.972656 C 289.945312 634.402344 295.460938 639.710938 299.304688 644.097656 C 301.230469 646.273438 302.734375 648.195312 303.777344 649.617188 C 304.277344 650.328125 304.695312 650.910156 305.03125 651.414062 L 305.40625 652.039062 C 308 655.886719 306.953125 661.109375 303.109375 663.660156 C 299.222656 666.25 294.039062 665.203125 291.449219 661.359375 C 291.15625 660.941406 290.90625 660.441406 290.738281 659.980469 " fill-opacity="1" fill-rule="nonzero"/><path fill="#a9bdb1" d="M 261.570312 665.707031 C 261.570312 665.707031 261.570312 666 261.53125 666.585938 C 261.53125 667.167969 261.53125 668.214844 261.445312 669.257812 C 261.320312 671.433594 260.984375 674.441406 260.402344 678.078125 C 260.109375 679.875 259.648438 681.796875 259.1875 683.84375 C 258.5625 685.894531 258.144531 688.023438 257.265625 690.199219 C 256.847656 691.285156 256.429688 692.371094 256.011719 693.5 C 255.511719 694.585938 254.96875 695.671875 254.425781 696.800781 C 253.507812 699.015625 251.875 701.105469 250.621094 703.195312 C 249.828125 704.199219 248.949219 705.160156 248.15625 706.121094 C 247.320312 707.082031 246.527344 708.042969 245.484375 708.796875 C 244.519531 709.589844 243.558594 710.382812 242.640625 711.136719 C 241.679688 711.929688 240.550781 712.390625 239.507812 712.976562 C 238.460938 713.558594 237.5 714.144531 236.5 714.5625 C 235.410156 714.9375 234.367188 715.230469 233.363281 715.566406 C 232.359375 715.859375 231.359375 716.191406 230.4375 716.402344 C 229.476562 716.527344 228.558594 716.609375 227.640625 716.738281 C 225.84375 716.820312 224.253906 717.195312 222.832031 717.027344 C 221.414062 716.945312 220.199219 716.863281 219.199219 716.777344 C 217.191406 716.609375 216.023438 716.527344 216.023438 716.527344 C 215.269531 716.445312 214.683594 715.773438 214.769531 715.023438 C 214.808594 714.355469 215.351562 713.8125 215.980469 713.769531 L 216.1875 713.726562 C 216.1875 713.726562 217.277344 713.601562 219.15625 713.351562 C 220.074219 713.269531 221.203125 713.140625 222.5 712.976562 C 223.753906 712.890625 225.089844 712.222656 226.59375 711.847656 C 227.347656 711.636719 228.097656 711.386719 228.894531 711.136719 C 229.644531 710.800781 230.355469 710.382812 231.148438 709.964844 C 231.902344 709.546875 232.652344 709.171875 233.449219 708.753906 C 234.15625 708.210938 234.828125 707.582031 235.535156 707 C 236.207031 706.414062 237 705.953125 237.585938 705.203125 C 238.167969 704.492188 238.714844 703.738281 239.339844 702.988281 C 240.550781 701.648438 241.304688 699.726562 242.265625 698.136719 C 242.890625 696.257812 243.8125 694.628906 244.1875 692.707031 C 244.4375 691.742188 244.648438 690.824219 244.898438 689.90625 C 245.023438 688.945312 245.191406 688.023438 245.316406 687.105469 C 245.691406 685.308594 245.691406 683.425781 245.859375 681.753906 C 245.902344 680 245.941406 678.410156 245.902344 676.867188 C 245.816406 673.855469 245.566406 671.347656 245.316406 669.636719 C 245.230469 668.757812 245.105469 668.257812 245.023438 667.839844 C 244.9375 667.378906 244.898438 667.085938 244.898438 667.085938 L 244.898438 667.003906 C 244.0625 662.445312 247.113281 658.101562 251.710938 657.265625 C 256.265625 656.46875 260.609375 659.519531 261.445312 664.078125 C 261.53125 664.621094 261.570312 665.203125 261.570312 665.707031 " fill-opacity="1" fill-rule="nonzero"/><path fill="#a9bdb1" d="M 333.363281 509.0625 C 333.363281 509.0625 333.574219 508.855469 333.992188 508.519531 C 334.324219 508.269531 334.953125 507.726562 335.746094 507.015625 C 337.332031 505.554688 339.589844 503.378906 342.140625 500.453125 C 344.648438 497.527344 347.570312 494.019531 350.289062 489.921875 C 351.707031 487.917969 353.003906 485.742188 354.382812 483.527344 C 355.761719 481.3125 356.933594 478.929688 358.226562 476.632812 C 359.355469 474.25 360.527344 471.867188 361.65625 469.484375 C 362.65625 467.0625 363.617188 464.679688 364.578125 462.339844 C 365.375 459.957031 366.167969 457.65625 366.921875 455.484375 C 367.714844 453.3125 368.171875 451.179688 368.71875 449.214844 C 369.886719 445.328125 370.472656 441.984375 370.972656 439.6875 C 371.433594 437.347656 371.726562 436.007812 371.726562 436.007812 L 371.765625 435.839844 C 372.101562 434.296875 373.605469 433.335938 375.109375 433.667969 C 376.53125 433.960938 377.492188 435.257812 377.367188 436.636719 C 377.367188 436.636719 377.242188 438.058594 377.03125 440.523438 C 376.824219 442.988281 376.65625 446.5 375.988281 450.679688 C 375.613281 452.769531 375.402344 455.109375 374.902344 457.492188 C 374.398438 459.871094 373.898438 462.378906 373.3125 465.011719 C 372.644531 467.605469 371.933594 470.28125 371.183594 472.996094 C 370.304688 475.671875 369.46875 478.429688 368.464844 481.105469 C 367.421875 483.777344 366.460938 486.539062 365.25 489.085938 C 364.078125 491.71875 362.949219 494.269531 361.65625 496.652344 C 359.1875 501.542969 356.515625 505.886719 354.050781 509.605469 C 351.542969 513.285156 349.203125 516.210938 347.488281 518.257812 C 346.570312 519.304688 345.898438 520.054688 345.273438 520.722656 L 344.4375 521.558594 C 341.21875 524.863281 335.914062 524.902344 332.613281 521.6875 C 329.269531 518.46875 329.226562 513.160156 332.445312 509.859375 C 332.695312 509.605469 332.945312 509.398438 333.15625 509.1875 L 333.363281 509.0625 " fill-opacity="1" fill-rule="nonzero"/><path fill="#a9bdb1" d="M 326.886719 461.585938 C 326.886719 461.585938 324.878906 458.285156 321.496094 453.644531 C 318.152344 449.007812 313.390625 443.113281 308.375 437.386719 C 303.445312 431.664062 298.261719 426.144531 294.25 422.132812 C 290.238281 418.121094 287.4375 415.570312 287.4375 415.570312 C 286.601562 414.820312 286.5625 413.566406 287.3125 412.773438 C 288.023438 411.976562 289.277344 411.894531 290.070312 412.644531 C 290.15625 412.6875 290.238281 412.773438 290.28125 412.8125 C 290.28125 412.8125 292.703125 415.738281 296.507812 419.960938 C 300.351562 424.140625 305.65625 429.53125 311.132812 434.753906 C 316.605469 440.019531 322.332031 445.035156 326.804688 448.589844 C 331.273438 452.183594 334.492188 454.355469 334.492188 454.355469 C 336.914062 456.027344 337.542969 459.371094 335.871094 461.796875 C 334.199219 464.261719 330.898438 464.886719 328.433594 463.214844 C 327.804688 462.757812 327.261719 462.214844 326.886719 461.585938 " fill-opacity="1" fill-rule="nonzero"/><path fill="#ffffff" d="M 671.726562 57.066406 C 671.726562 66.804688 667.210938 74.703125 661.65625 74.703125 C 656.136719 74.703125 651.625 66.804688 651.625 57.066406 C 651.625 47.328125 656.136719 39.429688 661.65625 39.429688 C 667.210938 39.429688 671.726562 47.328125 671.726562 57.066406 " fill-opacity="1" fill-rule="nonzero"/><path fill="#ffffff" d="M 691.15625 87.242188 C 691.15625 94.136719 687.980469 99.78125 684.054688 99.78125 C 680.082031 99.78125 676.90625 94.136719 676.90625 87.242188 C 676.90625 80.304688 680.082031 74.703125 684.054688 74.703125 C 687.980469 74.703125 691.15625 80.304688 691.15625 87.242188 " fill-opacity="1" fill-rule="nonzero"/><path fill="#ffffff" d="M 699.011719 48.332031 C 699.011719 54.222656 696.296875 58.988281 692.953125 58.988281 C 689.609375 58.988281 686.9375 54.222656 686.9375 48.332031 C 686.9375 42.480469 689.609375 37.714844 692.953125 37.714844 C 696.296875 37.714844 699.011719 42.480469 699.011719 48.332031 " fill-opacity="1" fill-rule="nonzero"/><path fill="#ffffff" d="M 89.613281 288.476562 C 89.613281 298.214844 85.097656 306.113281 79.539062 306.113281 C 73.984375 306.113281 69.511719 298.214844 69.511719 288.476562 C 69.511719 278.699219 73.984375 270.839844 79.539062 270.839844 C 85.097656 270.839844 89.613281 278.699219 89.613281 288.476562 " fill-opacity="1" fill-rule="nonzero"/><path fill="#ffffff" d="M 109.042969 318.652344 C 109.042969 325.589844 105.867188 331.191406 101.898438 331.191406 C 97.96875 331.191406 94.792969 325.589844 94.792969 318.652344 C 94.792969 311.714844 97.96875 306.113281 101.898438 306.113281 C 105.867188 306.113281 109.042969 311.714844 109.042969 318.652344 " fill-opacity="1" fill-rule="nonzero"/><path fill="#ffffff" d="M 116.898438 279.742188 C 116.898438 285.636719 114.183594 290.398438 110.839844 290.398438 C 107.496094 290.398438 104.824219 285.636719 104.824219 279.742188 C 104.824219 273.890625 107.496094 269.128906 110.839844 269.128906 C 114.183594 269.128906 116.898438 273.890625 116.898438 279.742188 " fill-opacity="1" fill-rule="nonzero"/></svg>